<?xml version="1.0" encoding="UTF-8"?>
<svg id="Laag_1" data-name="Laag 1" xmlns="http://www.w3.org/2000/svg" viewBox="0 0 1080 1080">
  <defs>
    <style>
      .cls-1 {
        fill: #a0b450;
      }
    </style>
  </defs>
  <path class="cls-1" d="M475.56,177.34c0,12.63-7.58,20.21-22.74,22.74-154.17,37.9-338.66,181.95-338.66,348.76,0,22.74,7.58,32.86,25.27,32.86,35.38,0,55.6-75.83,159.22-75.83,96.04,0,194.6,80.88,194.6,207.25s-96.03,209.75-219.87,209.75c-144.05,0-242.62-106.15-242.62-278,0-384.15,379.09-487.76,422.06-487.76,10.1,0,22.74,5.06,22.74,20.22ZM1031.55,177.34c0,12.63-7.58,20.21-22.74,22.74-154.16,37.9-338.65,181.95-338.65,348.76,0,22.74,7.58,32.86,25.27,32.86,35.38,0,55.6-75.83,159.22-75.83,96.03,0,194.6,80.88,194.6,207.25s-96.04,209.75-219.87,209.75c-144.06,0-242.62-106.15-242.62-278,0-384.15,379.09-487.76,422.05-487.76,10.11,0,22.74,5.06,22.74,20.22Z"/>
</svg>