<?xml version="1.0" encoding="UTF-8"?>
<svg id="Laag_1" data-name="Laag 1" xmlns="http://www.w3.org/2000/svg" viewBox="0 0 954.04 988.59">
  <defs>
    <style>
      .cls-1 {
        fill: #4a5d23;
      }
    </style>
  </defs>
  <path class="cls-1" d="M954.04,338.82c0-1.43-.47-2.81-1.34-3.95l-184.27-240.21s-.08-.06-.11-.09c-.46-.58-1.02-1.07-1.65-1.46-.16-.1-.33-.15-.5-.24-.31-.16-.61-.35-.95-.45L470.74.3c-1.28-.41-2.67-.4-3.95.03L185.44,92.45s-.07.04-.12.06c-.49.17-.96.4-1.4.69-.11.07-.2.15-.3.23-.33.24-.64.52-.92.83-.1.11-.2.22-.3.34-.06.08-.14.14-.2.22L1.23,345.72c-.8,1.11-1.23,2.43-1.23,3.79v299.42c0,.41.09.8.17,1.19.03.16.03.31.07.47.19.73.52,1.4.94,2.01.04.05.04.11.08.17l177.69,241.85c.81,1.1,1.94,1.92,3.25,2.34l284.64,91.31c.65.21,1.31.31,1.98.31s1.31-.1,1.94-.3h.04s.01-.02.02-.02l298.53-93.76c1.32-.41,2.48-1.24,3.29-2.36l180.16-246.79c.08-.1.12-.22.19-.33.09-.15.18-.29.26-.44.18-.33.32-.68.44-1.04.05-.14.1-.27.14-.42.13-.5.21-1.02.21-1.54,0-.02,0-.03,0-.05v-302.72ZM662.16,821.17h-186.88v-81.57l266.52-178.16-79.64,259.73ZM288.47,825.49h173.85v147.72l-268.49-86.13,94.64-61.59ZM289.38,821.17l-92.16-273.26,265.1,191.54v81.72h-172.95ZM12.96,357.1l154.57,116.31,5.31,15.74-9,26.76L12.96,635.53v-278.43ZM470.96,13.95l277.75,86.89-86.98,60.39h-190.76V13.95ZM761.91,107.46l179.07,233.43-167.02,120.32-18.61-13.04-84.03-277.81,9.41-6.54,81.17-56.36ZM179.69,509.45l4.37,12.96-7.03-5.08,2.65-7.89ZM181.96,502.68l16.7-49.64,270.17-200.4,271.36,190.19,18.86,62.35-11.24,36.66-278.87,186.41-278.86-201.48-8.12-24.09ZM738.17,436.13l-267.21-187.28v-74.65h187.99l79.22,261.92ZM466.64,248.89l-265.57,196.99,91.41-271.67h174.16v74.68ZM761.3,512.59l5.09,16.82-12.89,8.62,7.8-25.44ZM757.39,454.87l14.07,9.86-5.58,18.21-8.49-28.07ZM775.84,465.19l165.24-119.04v283.64l-161.59-101.85-11.37-37.58,7.72-25.17ZM175.12,482.38l-3.2-9.49,8.52-6.32-5.32,15.82ZM466.64,14.01v147.23h-176.8l-87.92-60.54L466.64,14.01ZM189.01,107.55l91.12,62.74-97.27,289.1-13.47,9.99L12.96,351.69v-.08L189.01,107.55ZM15.41,650.14l154.14-122.22,21.64,15.64,94.05,278.88-96.72,62.95-.38-.12L15.41,650.14ZM475.29,825.49h187.85l94.34,59.16-282.19,88.62v-147.78ZM763.43,882.78l-.53.17-96.58-60.57,81.18-264.74,26.6-17.78,164.15,103.46-174.81,239.46Z"/>
</svg>