<?xml version="1.0" encoding="UTF-8"?>
<svg id="Laag_1" data-name="Laag 1" xmlns="http://www.w3.org/2000/svg" viewBox="0 0 1080 1080">
  <defs>
    <style>
      .cls-1 {
        fill: #4a5d23;
      }
    </style>
  </defs>
  <path class="cls-1" d="M505.11,458.84h-59.96c0-69.05,35.88-160.96,138.85-160.96,74.95,0,99.03,48.23,99.03,90.62,0,104.93-151.19,168.76-177.91,257.41h-53.45c32.63-116.67,166.86-173.37,166.86-254.15,0-24.15-11.73-42.33-35.88-42.33-41.04,0-77.53,53.38-77.53,109.41M396.92,735.18c0-26.05,20.89-46.87,46.94-46.87s46.94,20.82,46.94,46.87-20.89,46.94-46.94,46.94-46.94-20.82-46.94-46.94"/>
  <path class="cls-1" d="M539.97,105.12c-239.77,0-434.85,195.08-434.85,434.85s195.08,434.92,434.85,434.92,434.92-195.08,434.92-434.92S779.81,105.12,539.97,105.12M539.97,1020.67c-265.08,0-480.64-215.63-480.64-480.7S274.89,59.33,539.97,59.33s480.7,215.63,480.7,480.64-215.63,480.7-480.7,480.7"/>
</svg>